# xmcd
#
# Track frame offsets:
#	150
#	14124
#	29733
#	41353
#	60341
#	73214
#	86004
#	103838
#	111997
#	118121
#	129486
#
# Disc length: 1891 seconds
#
# Revision: 1
# Processed by: cddbd v1.5.2PL0 Copyright (c) Steve Scherf et al.
# Submitted via: audiograbber 1.83.01
#
DISCID=a007610b
DTITLE=DorNel Pratt - The Old Home Place
DYEAR=2006
DGENRE=Bluegrass
TTITLE0=Blue Yodel #6
TTITLE1=Last Train From Poor Valley
TTITLE2=Get Up John
TTITLE3=Rock Salt And Nails
TTITLE4=Old Homeplace
TTITLE5=Rank Stranger
TTITLE6=Darcy Farrow
TTITLE7=Sittin' On Top Of The World
TTITLE8=Cryin' Holy Unto The Lord
TTITLE9=Little Maggie
TTITLE10=Goin' To Rocky Island ~ Mule To Ride
EXTD=Contact:\nDorNel Pratt\nBox 252\nArarat, VA 24053
EXTT0=
EXTT1=
EXTT2=
EXTT3=
EXTT4=
EXTT5=
EXTT6=
EXTT7=
EXTT8=
EXTT9=
EXTT10=
PLAYORDER=
